<svg width="20" height="20" viewBox="0 0 20 20" fill="none" xmlns="http://www.w3.org/2000/svg">
<path d="M10.1333 9.05829C10.05 9.04996 9.94999 9.04996 9.85832 9.05829C7.87499 8.99163 6.29999 7.36663 6.29999 5.36663C6.29999 3.32496 7.94999 1.66663 9.99999 1.66663C12.0417 1.66663 13.7 3.32496 13.7 5.36663C13.6917 7.36663 12.1167 8.99163 10.1333 9.05829Z" stroke="#292D32" stroke-width="1.5" stroke-linecap="round" stroke-linejoin="round"/>
<path d="M5.96666 12.1334C3.95 13.4834 3.95 15.6834 5.96666 17.025C8.25833 18.5584 12.0167 18.5584 14.3083 17.025C16.325 15.675 16.325 13.475 14.3083 12.1334C12.025 10.6084 8.26666 10.6084 5.96666 12.1334Z" stroke="#292D32" stroke-width="1.5" stroke-linecap="round" stroke-linejoin="round"/>
</svg>
