<svg width="20" height="20" viewBox="0 0 20 20" fill="none" xmlns="http://www.w3.org/2000/svg">
<path d="M12.1083 7.89172L7.89167 12.1084C7.35 11.5667 7.01667 10.8251 7.01667 10.0001C7.01667 8.35006 8.35 7.01672 10 7.01672C10.825 7.01672 11.5667 7.35006 12.1083 7.89172Z" stroke="#5B8CE8" stroke-width="1.5" stroke-linecap="round" stroke-linejoin="round"/>
<path d="M14.85 4.80828C13.3917 3.70828 11.725 3.10828 10 3.10828C7.05833 3.10828 4.31667 4.84161 2.40833 7.84161C1.65833 9.01661 1.65833 10.9916 2.40833 12.1666C3.06667 13.1999 3.83333 14.0916 4.66667 14.8083" stroke="#5B8CE8" stroke-width="1.5" stroke-linecap="round" stroke-linejoin="round"/>
<path d="M7.01667 16.2749C7.96667 16.6749 8.975 16.8916 10 16.8916C12.9417 16.8916 15.6833 15.1583 17.5917 12.1583C18.3417 10.9833 18.3417 9.00828 17.5917 7.83328C17.3167 7.39994 17.0167 6.99161 16.7083 6.60828" stroke="#5B8CE8" stroke-width="1.5" stroke-linecap="round" stroke-linejoin="round"/>
<path d="M12.925 10.5834C12.7083 11.7584 11.75 12.7167 10.575 12.9334" stroke="#5B8CE8" stroke-width="1.5" stroke-linecap="round" stroke-linejoin="round"/>
<path d="M7.89167 12.1083L1.66667 18.3333" stroke="#5B8CE8" stroke-width="1.5" stroke-linecap="round" stroke-linejoin="round"/>
<path d="M18.3333 1.66663L12.1083 7.89163" stroke="#5B8CE8" stroke-width="1.5" stroke-linecap="round" stroke-linejoin="round"/>
</svg>
